<svg xmlns="http://www.w3.org/2000/svg" version="1.1" xmlns:xlink="http://www.w3.org/1999/xlink" width="200" height="200"><svg xmlns="http://www.w3.org/2000/svg" version="1.1" xmlns:xlink="http://www.w3.org/1999/xlink" viewBox="0 0 200 200"><rect width="200" height="200" fill="url('#gradient')"></rect><defs><linearGradient id="SvgjsLinearGradient1001" gradientTransform="rotate(26 0.5 0.5)"><stop offset="0%" stop-color="#2d1b11"></stop><stop offset="100%" stop-color="#f9d3d3"></stop></linearGradient></defs><g><g fill="#3a1d0e" transform="matrix(3.9273547659334462,0,0,3.9273547659334462,31.529927453615542,129.47467926996816)" stroke="#c8512e" stroke-width="0.25"><path d="M4.95 0L1.65 0L1.65-8.28L0.12-8.28L0.12-10.57L1.65-10.57L1.65-11.41Q1.65-13.21 2.71-14.21Q3.78-15.21 5.70-15.21L5.70-15.21Q6.41-15.21 7.25-15L7.25-15L7.26-12.58Q6.95-12.67 6.45-12.67L6.45-12.67Q4.95-12.67 4.95-11.38L4.95-11.38L4.95-10.57L7.01-10.57L7.01-8.28L4.95-8.28L4.95 0ZM17.41 0L14.12 0Q13.95-0.32 13.81-0.95L13.81-0.95Q12.90 0.20 11.27 0.20L11.27 0.20Q9.78 0.20 8.73-0.71Q7.69-1.61 7.69-2.98L7.69-2.98Q7.69-4.70 8.96-5.58Q10.22-6.46 12.65-6.46L12.65-6.46L13.66-6.46L13.66-7.01Q13.66-8.47 12.40-8.47L12.40-8.47Q11.23-8.47 11.23-7.31L11.23-7.31L7.94-7.31Q7.94-8.85 9.24-9.80Q10.55-10.76 12.57-10.76Q14.59-10.76 15.76-9.78Q16.93-8.79 16.96-7.07L16.96-7.07L16.96-2.39Q16.98-0.94 17.41-0.17L17.41-0.17L17.41 0ZM12.06-2.15L12.06-2.15Q12.68-2.15 13.08-2.41Q13.49-2.68 13.66-3.01L13.66-3.01L13.66-4.70L12.71-4.70Q10.99-4.70 10.99-3.15L10.99-3.15Q10.99-2.71 11.29-2.43Q11.59-2.15 12.06-2.15ZM24.32-2.97L24.32-2.97Q24.32-3.39 23.88-3.64Q23.44-3.90 22.21-4.17Q20.98-4.44 20.18-4.89Q19.38-5.33 18.96-5.97Q18.54-6.60 18.54-7.42L18.54-7.42Q18.54-8.88 19.74-9.82Q20.94-10.76 22.88-10.76L22.88-10.76Q24.97-10.76 26.24-9.81Q27.51-8.87 27.51-7.32L27.51-7.32L24.21-7.32Q24.21-8.59 22.87-8.59L22.87-8.59Q22.35-8.59 22.00-8.31Q21.65-8.02 21.65-7.59L21.65-7.59Q21.65-7.15 22.08-6.88Q22.51-6.60 23.45-6.43Q24.39-6.25 25.11-6.01L25.11-6.01Q27.49-5.19 27.49-3.07L27.49-3.07Q27.49-1.62 26.21-0.71Q24.92 0.20 22.88 0.20L22.88 0.20Q21.52 0.20 20.46-0.29Q19.39-0.78 18.80-1.62Q18.20-2.46 18.20-3.39L18.20-3.39L21.28-3.39Q21.30-2.66 21.77-2.32Q22.24-1.98 22.97-1.98L22.97-1.98Q23.64-1.98 23.98-2.26Q24.32-2.53 24.32-2.97ZM29.57-13.19L32.86-13.19L32.86-10.57L34.60-10.57L34.60-8.28L32.86-8.28L32.86-3.45Q32.86-2.85 33.08-2.62Q33.29-2.38 33.93-2.38L33.93-2.38Q34.41-2.38 34.75-2.44L34.75-2.44L34.75-0.09Q33.86 0.20 32.89 0.20L32.89 0.20Q31.19 0.20 30.38-0.61Q29.57-1.41 29.57-3.04L29.57-3.04L29.57-8.28L28.22-8.28L28.22-10.57L29.57-10.57L29.57-13.19Z"></path></g></g></svg><style>@media (prefers-color-scheme: light) { :root { filter: none; } }
@media (prefers-color-scheme: dark) { :root { filter: none; } }
</style></svg>